<?xml version="1.0" standalone="no"?>
<!DOCTYPE svg PUBLIC "-//W3C//DTD SVG 20010904//EN"
 "http://www.w3.org/TR/2001/REC-SVG-20010904/DTD/svg10.dtd">
<svg version="1.0" xmlns="http://www.w3.org/2000/svg"
 width="700.000000pt" height="700.000000pt" viewBox="0 0 700.000000 700.000000"
 preserveAspectRatio="xMidYMid meet">
<metadata>
Created by potrace 1.14, written by Peter Selinger 2001-2017
</metadata>
<g transform="translate(0.000000,700.000000) scale(0.100000,-0.100000)"
fill="#000000" stroke="none">
<path d="M372 5902 l3 -125 275 -2 c333 -3 394 -14 453 -84 53 -64 51 24 51
-1881 0 -1625 -3 -1844 -20 -1950 -18 -113 -75 -245 -133 -309 -90 -99 -276
-172 -501 -197 -36 -4 -72 -8 -80 -10 -8 -1 -23 -3 -32 -3 -16 -1 -18 -14 -18
-126 l0 -125 930 0 930 0 1 33 c2 96 0 209 -3 213 -3 2 -29 6 -59 9 -237 23
-357 55 -458 122 -126 82 -215 212 -246 358 -8 38 -18 86 -22 105 -10 50 -15
3818 -4 3800 5 -8 32 -78 60 -155 29 -77 56 -149 61 -160 5 -11 50 -130 101
-265 136 -366 774 -2059 1246 -3310 13 -36 33 -87 43 -115 9 -27 29 -79 43
-115 14 -36 60 -157 102 -270 42 -113 80 -215 85 -227 9 -22 15 -23 122 -23
l113 0 42 123 c23 67 90 259 148 427 59 168 142 406 185 530 151 437 172 496
200 575 25 70 89 253 231 665 22 63 51 144 64 180 13 36 49 139 80 230 31 91
72 208 90 260 18 52 52 149 75 215 22 66 45 129 50 140 5 11 13 36 19 55 5 19
30 94 56 165 26 72 57 162 70 200 13 39 47 135 75 215 29 80 60 170 70 200 10
30 46 134 80 230 34 96 66 187 70 202 5 14 12 34 17 43 6 9 9 -831 8 -2102 0
-1947 -2 -2120 -17 -2148 -42 -76 -114 -127 -198 -140 -25 -3 -54 -8 -65 -10
-11 -2 -127 -4 -257 -4 l-238 -1 0 -125 0 -125 1130 0 1130 0 0 125 0 125
-222 1 c-123 0 -239 2 -258 5 -122 14 -157 24 -212 63 -20 14 -47 44 -60 66
l-23 40 0 2040 0 2040 25 50 c26 52 84 101 130 110 82 17 163 21 379 21 l241
-1 0 127 0 126 -842 -1 -841 -2 -18 -50 c-9 -27 -83 -239 -164 -470 -81 -231
-151 -431 -155 -445 -5 -14 -43 -124 -85 -245 -42 -121 -105 -301 -140 -400
-34 -99 -65 -187 -68 -195 -4 -8 -26 -73 -51 -145 -24 -71 -79 -229 -121 -350
-43 -121 -94 -270 -115 -331 -21 -61 -59 -169 -84 -240 -25 -71 -95 -273 -156
-449 -61 -176 -113 -327 -117 -335 -3 -8 -7 -19 -9 -25 -8 -33 -67 -191 -74
-198 -4 -5 -23 36 -43 90 -19 54 -83 224 -142 378 -58 154 -203 537 -322 850
-118 314 -300 793 -403 1065 -103 272 -224 592 -269 710 -44 118 -129 343
-189 500 l-108 285 -822 1 -823 1 3 -125z"/>
</g>
</svg>
